<svg width="66" height="16" viewBox="0 0 66 16" fill="none" xmlns="http://www.w3.org/2000/svg">
<path d="M3.984 13.128C3.39733 13.128 2.864 12.9893 2.384 12.712C1.904 12.424 1.52 12.0293 1.232 11.528C0.954667 11.0267 0.816 10.4613 0.816 9.832C0.816 9.16 0.96 8.57867 1.248 8.088C1.536 7.59733 1.92533 7.21867 2.416 6.952C2.91733 6.68533 3.46667 6.552 4.064 6.552C4.66133 6.552 5.22667 6.70667 5.76 7.016C6.304 7.32533 6.69867 7.73067 6.944 8.232L6.816 8.584V0.839999H7.568V13H6.8V11.08L6.96 11.432C6.69333 11.9333 6.29333 12.344 5.76 12.664C5.22667 12.9733 4.63467 13.128 3.984 13.128ZM4.176 12.472C4.656 12.472 5.088 12.3707 5.472 12.168C5.856 11.9547 6.16533 11.672 6.4 11.32C6.63467 10.9573 6.768 10.552 6.8 10.104V9.304C6.72533 8.89867 6.56 8.536 6.304 8.216C6.048 7.896 5.73867 7.64533 5.376 7.464C5.01333 7.272 4.61333 7.176 4.176 7.176C3.696 7.176 3.25867 7.288 2.864 7.512C2.46933 7.736 2.15467 8.04533 1.92 8.44C1.68533 8.83467 1.568 9.29333 1.568 9.816C1.568 10.3067 1.68533 10.7547 1.92 11.16C2.15467 11.5547 2.46933 11.8747 2.864 12.12C3.26933 12.3547 3.70667 12.472 4.176 12.472ZM13.1284 13.128C12.4777 13.128 11.9017 12.984 11.4004 12.696C10.899 12.408 10.5044 12.0187 10.2164 11.528C9.93904 11.0267 9.80038 10.4667 9.80038 9.848C9.80038 9.24 9.94971 8.68533 10.2484 8.184C10.547 7.68267 10.947 7.28267 11.4484 6.984C11.9604 6.68533 12.5257 6.536 13.1444 6.536C13.891 6.536 14.515 6.75467 15.0164 7.192C15.5284 7.62933 15.8964 8.2 16.1204 8.904L10.6484 11.016L10.4244 10.472L15.4324 8.52L15.2724 8.744C15.091 8.31733 14.8137 7.94933 14.4404 7.64C14.0777 7.33067 13.6297 7.176 13.0964 7.176C12.6164 7.176 12.1844 7.29333 11.8004 7.528C11.4164 7.76267 11.107 8.07733 10.8724 8.472C10.6484 8.86667 10.5364 9.31467 10.5364 9.816C10.5364 10.2853 10.643 10.7227 10.8564 11.128C11.0804 11.5333 11.3897 11.8587 11.7844 12.104C12.179 12.3493 12.6324 12.472 13.1444 12.472C13.4857 12.472 13.811 12.408 14.1204 12.28C14.4404 12.152 14.723 11.9867 14.9684 11.784L15.3524 12.328C15.0537 12.5627 14.707 12.7547 14.3124 12.904C13.9284 13.0533 13.5337 13.128 13.1284 13.128ZM20.2566 13.24L17.0886 6.744H17.9686L20.5766 12.424L20.1126 12.408L22.6246 6.744H23.4566L20.3526 13.24H20.2566ZM27.9721 13.128C27.3215 13.128 26.7455 12.984 26.2441 12.696C25.7428 12.408 25.3481 12.0187 25.0601 11.528C24.7828 11.0267 24.6441 10.4667 24.6441 9.848C24.6441 9.24 24.7935 8.68533 25.0921 8.184C25.3908 7.68267 25.7908 7.28267 26.2921 6.984C26.8041 6.68533 27.3695 6.536 27.9881 6.536C28.7348 6.536 29.3588 6.75467 29.8601 7.192C30.3721 7.62933 30.7401 8.2 30.9641 8.904L25.4921 11.016L25.2681 10.472L30.2761 8.52L30.1161 8.744C29.9348 8.31733 29.6575 7.94933 29.2841 7.64C28.9215 7.33067 28.4735 7.176 27.9401 7.176C27.4601 7.176 27.0281 7.29333 26.6441 7.528C26.2601 7.76267 25.9508 8.07733 25.7161 8.472C25.4921 8.86667 25.3801 9.31467 25.3801 9.816C25.3801 10.2853 25.4868 10.7227 25.7001 11.128C25.9241 11.5333 26.2335 11.8587 26.6281 12.104C27.0228 12.3493 27.4761 12.472 27.9881 12.472C28.3295 12.472 28.6548 12.408 28.9641 12.28C29.2841 12.152 29.5668 11.9867 29.8121 11.784L30.1961 12.328C29.8975 12.5627 29.5508 12.7547 29.1561 12.904C28.7721 13.0533 28.3775 13.128 27.9721 13.128ZM33.049 0.839999H33.801V13H33.049V0.839999ZM36.0348 9.832C36.0348 9.224 36.1788 8.66933 36.4668 8.168C36.7654 7.66667 37.1654 7.272 37.6668 6.984C38.1788 6.68533 38.7494 6.536 39.3788 6.536C40.0188 6.536 40.5894 6.68533 41.0908 6.984C41.5921 7.272 41.9868 7.66667 42.2748 8.168C42.5628 8.66933 42.7068 9.224 42.7068 9.832C42.7068 10.44 42.5628 10.9947 42.2748 11.496C41.9868 11.9973 41.5868 12.3973 41.0748 12.696C40.5734 12.984 40.0081 13.128 39.3788 13.128C38.7388 13.128 38.1681 12.9893 37.6668 12.712C37.1654 12.424 36.7654 12.0347 36.4668 11.544C36.1788 11.0427 36.0348 10.472 36.0348 9.832ZM36.7868 9.848C36.7868 10.3387 36.8988 10.7867 37.1228 11.192C37.3574 11.5867 37.6668 11.9013 38.0508 12.136C38.4454 12.3707 38.8828 12.488 39.3628 12.488C39.8428 12.488 40.2748 12.3707 40.6588 12.136C41.0534 11.9013 41.3628 11.5867 41.5868 11.192C41.8214 10.7867 41.9388 10.3387 41.9388 9.848C41.9388 9.35733 41.8214 8.91467 41.5868 8.52C41.3628 8.11467 41.0534 7.79467 40.6588 7.56C40.2748 7.31467 39.8428 7.192 39.3628 7.192C38.8721 7.192 38.4294 7.32 38.0348 7.576C37.6508 7.82133 37.3468 8.14667 37.1228 8.552C36.8988 8.95733 36.7868 9.38933 36.7868 9.848ZM48.3956 13.128C47.7983 13.128 47.2383 12.9733 46.7156 12.664C46.193 12.344 45.809 11.9333 45.5636 11.432L45.6916 11.16V16.008H44.9396V6.696H45.6116L45.6916 8.744L45.5476 8.28C45.825 7.77867 46.2303 7.368 46.7636 7.048C47.297 6.71733 47.8783 6.552 48.5076 6.552C49.105 6.552 49.6436 6.696 50.1236 6.984C50.6036 7.272 50.9823 7.66667 51.2596 8.168C51.5476 8.65867 51.6916 9.224 51.6916 9.864C51.6916 10.4933 51.5423 11.0587 51.2436 11.56C50.9556 12.0507 50.561 12.4347 50.0596 12.712C49.569 12.9893 49.0143 13.128 48.3956 13.128ZM48.2676 12.504C48.7583 12.504 49.201 12.3867 49.5956 12.152C50.001 11.9173 50.321 11.6027 50.5556 11.208C50.801 10.8027 50.9236 10.3547 50.9236 9.864C50.9236 9.36267 50.8063 8.91467 50.5716 8.52C50.337 8.11467 50.0223 7.79467 49.6276 7.56C49.2436 7.32533 48.8063 7.208 48.3156 7.208C47.8463 7.208 47.4196 7.31467 47.0356 7.528C46.6516 7.74133 46.3423 8.02933 46.1076 8.392C45.873 8.75467 45.7343 9.16533 45.6916 9.624V10.136C45.7236 10.5733 45.857 10.9733 46.0916 11.336C46.337 11.6987 46.6463 11.9867 47.0196 12.2C47.4036 12.4027 47.8196 12.504 48.2676 12.504ZM56.644 13.128C55.9933 13.128 55.4173 12.984 54.916 12.696C54.4147 12.408 54.02 12.0187 53.732 11.528C53.4547 11.0267 53.316 10.4667 53.316 9.848C53.316 9.24 53.4653 8.68533 53.764 8.184C54.0627 7.68267 54.4627 7.28267 54.964 6.984C55.476 6.68533 56.0413 6.536 56.66 6.536C57.4067 6.536 58.0307 6.75467 58.532 7.192C59.044 7.62933 59.412 8.2 59.636 8.904L54.164 11.016L53.94 10.472L58.948 8.52L58.788 8.744C58.6067 8.31733 58.3293 7.94933 57.956 7.64C57.5933 7.33067 57.1453 7.176 56.612 7.176C56.132 7.176 55.7 7.29333 55.316 7.528C54.932 7.76267 54.6227 8.07733 54.388 8.472C54.164 8.86667 54.052 9.31467 54.052 9.816C54.052 10.2853 54.1587 10.7227 54.372 11.128C54.596 11.5333 54.9053 11.8587 55.3 12.104C55.6947 12.3493 56.148 12.472 56.66 12.472C57.0013 12.472 57.3267 12.408 57.636 12.28C57.956 12.152 58.2387 11.9867 58.484 11.784L58.868 12.328C58.5693 12.5627 58.2227 12.7547 57.828 12.904C57.444 13.0533 57.0493 13.128 56.644 13.128ZM62.3769 6.744L62.4569 8.664L62.3609 8.424C62.4995 8.04 62.7182 7.70933 63.0169 7.432C63.3155 7.15467 63.6462 6.94133 64.0089 6.792C64.3822 6.64267 64.7395 6.568 65.0809 6.568L65.0489 7.304C64.5689 7.304 64.1315 7.41067 63.7369 7.624C63.3529 7.83733 63.0435 8.12533 62.8089 8.488C62.5849 8.84 62.4729 9.24 62.4729 9.688V13H61.7209V6.744H62.3769Z" fill="#89BCD9"/>
</svg>
